# xmcd
#
# Track frame offsets:
#	150
#	16718
#	31343
#	50693
#	68355
#	83730
#
# Disc length: 1344 seconds
#
# Revision: 1
# Processed by: cddbd v1.5.1PL0 Copyright (c) Steve Scherf et al.
# Submitted via: CDex 1.50Beta5
#
DISCID=3a053e06
DTITLE=村八分 - 草臥れて
DYEAR=1900
DGENRE=Rock
TTITLE0=どうしようかな
TTITLE1=のんだくれ
TTITLE2=くたびれて
TTITLE3=操り人形
TTITLE4=ドラネコ
TTITLE5=あッ!
EXTD=
EXTT0=
EXTT1=
EXTT2=
EXTT3=
EXTT4=
EXTT5=
PLAYORDER=
